<svg xmlns="http://www.w3.org/2000/svg" viewBox="0 0 640 420" role="img" aria-label="Records and calendar">
  <g transform="translate(132 72)">
    <rect x="54" y="46" width="268" height="246" rx="34" fill="#FFFFFF" stroke="#E3EAF5" stroke-width="4"/>
    <path d="M54 112h268" stroke="#E4EBF5" stroke-width="4"/>
    <g fill="#CBD5E1">
      <rect x="94" y="20" width="18" height="52" rx="9"/>
      <rect x="264" y="20" width="18" height="52" rx="9"/>
    </g>
    <g fill="#111827" opacity=".86">
      <circle cx="102" cy="152" r="6"/><circle cx="152" cy="152" r="6"/><circle cx="202" cy="152" r="6"/><circle cx="252" cy="152" r="6"/>
      <circle cx="102" cy="202" r="6"/><circle cx="152" cy="202" r="6"/><circle cx="202" cy="202" r="6"/><circle cx="252" cy="202" r="6"/>
      <circle cx="102" cy="252" r="6"/><circle cx="152" cy="252" r="6"/><circle cx="202" cy="252" r="6"/><circle cx="252" cy="252" r="6"/>
    </g>
    <circle cx="152" cy="202" r="25" fill="#FEF3C7"/>
    <circle cx="202" cy="202" r="25" fill="#DBEAFE"/>
    <circle cx="252" cy="252" r="25" fill="#FEF3C7"/>
    <path d="M132 332h146" stroke="#DBEAFE" stroke-width="14" stroke-linecap="round"/>
    <path d="M132 332h66" stroke="#2F7DF6" stroke-width="14" stroke-linecap="round"/>
    <path d="M220 332h58" stroke="#FACC15" stroke-width="14" stroke-linecap="round"/>
  </g>
</svg>
