<svg xmlns="http://www.w3.org/2000/svg" viewBox="0 0 640 420" role="img" aria-label="Difficulty levels">
  <g transform="translate(108 72)">
    <path d="M40 266h344" stroke="#E4EBF5" stroke-width="4" stroke-linecap="round"/>
    <rect x="38" y="202" width="56" height="64" rx="18" fill="#DCFCE7"/>
    <rect x="118" y="164" width="56" height="102" rx="18" fill="#DBEAFE"/>
    <rect x="198" y="126" width="56" height="140" rx="18" fill="#FFEDD5"/>
    <rect x="278" y="88" width="56" height="178" rx="18" fill="#FFE4E6"/>
    <rect x="358" y="50" width="56" height="216" rx="18" fill="#F3E8FF"/>
    <circle cx="66" cy="176" r="19" fill="#22C55E"/>
    <g fill="#2F7DF6">
      <circle cx="136" cy="136" r="5"/><circle cx="146" cy="136" r="5"/><circle cx="156" cy="136" r="5"/>
      <circle cx="136" cy="150" r="5"/><circle cx="146" cy="150" r="5"/><circle cx="156" cy="150" r="5"/>
      <circle cx="136" cy="164" r="5"/><circle cx="146" cy="164" r="5"/><circle cx="156" cy="164" r="5"/>
    </g>
    <path d="M226 82c13 17 23 29 23 48 0 17-12 29-29 29s-29-12-29-29c0-19 14-29 22-47 3 12 7 21 10 26 5-10 5-18 3-27Z" fill="#F97316"/>
    <circle cx="306" cy="56" r="29" fill="#FF3B5C"/>
    <path d="M380 70h54l-8-40-15 18-8-29-8 29-15-18v40Z" fill="#A855F7"/>
    <path d="M388 86h38" stroke="#A855F7" stroke-width="8" stroke-linecap="round"/>
  </g>
</svg>
